<svg xmlns="http://www.w3.org/2000/svg" xmlns:xlink="http://www.w3.org/1999/xlink" width="2560" zoomAndPan="magnify" viewBox="0 0 1920 1079.999946" height="1440" preserveAspectRatio="xMidYMid meet" version="1.0"><defs><g/><clipPath id="id1"><path d="M 1546 346 L 1827.65625 346 L 1827.65625 718.039062 L 1546 718.039062 Z M 1546 346 " clip-rule="nonzero"/></clipPath><clipPath id="id2"><path d="M 1555 314.6875 L 1827.65625 314.6875 L 1827.65625 460 L 1555 460 Z M 1555 314.6875 " clip-rule="nonzero"/></clipPath><clipPath id="id3"><path d="M 1702 438 L 1827.65625 438 L 1827.65625 615 L 1702 615 Z M 1702 438 " clip-rule="nonzero"/></clipPath><clipPath id="id4"><path d="M 1532.792969 393 L 1784 393 L 1784 718.039062 L 1532.792969 718.039062 Z M 1532.792969 393 " clip-rule="nonzero"/></clipPath><clipPath id="id5"><path d="M 1532.792969 407 L 1611 407 L 1611 569 L 1532.792969 569 Z M 1532.792969 407 " clip-rule="nonzero"/></clipPath><clipPath id="id6"><path d="M 1532.792969 377 L 1623 377 L 1623 482 L 1532.792969 482 Z M 1532.792969 377 " clip-rule="nonzero"/></clipPath><clipPath id="id7"><path d="M 1532.792969 359 L 1629 359 L 1629 460 L 1532.792969 460 Z M 1532.792969 359 " clip-rule="nonzero"/></clipPath><clipPath id="id8"><path d="M 1532.792969 333 L 1650 333 L 1650 444 L 1532.792969 444 Z M 1532.792969 333 " clip-rule="nonzero"/></clipPath><clipPath id="id9"><path d="M 1727 483 L 1827.65625 483 L 1827.65625 718.039062 L 1727 718.039062 Z M 1727 483 " clip-rule="nonzero"/></clipPath><clipPath id="id10"><path d="M 1745 483 L 1827.65625 483 L 1827.65625 597 L 1745 597 Z M 1745 483 " clip-rule="nonzero"/></clipPath></defs><g fill="#1c1716" fill-opacity="1"><g transform="translate(92.746035, 618.219588)"><g><path d="M 64.796875 -149.546875 C 72.753906 -149.546875 80.53125 -148.390625 88.125 -146.078125 C 95.71875 -143.765625 101.351562 -141.476562 105.03125 -139.21875 L 110.375 -135.65625 L 96.84375 -108.953125 C 95.78125 -109.660156 94.296875 -110.578125 92.390625 -111.703125 C 90.492188 -112.835938 86.9375 -114.351562 81.71875 -116.25 C 76.5 -118.15625 71.632812 -119.109375 67.125 -119.109375 C 61.539062 -119.109375 57.234375 -117.921875 54.203125 -115.546875 C 51.179688 -113.171875 49.671875 -109.960938 49.671875 -105.921875 C 49.671875 -103.910156 50.378906 -102.039062 51.796875 -100.3125 C 53.222656 -98.59375 55.65625 -96.753906 59.09375 -94.796875 C 62.539062 -92.835938 65.570312 -91.265625 68.1875 -90.078125 C 70.800781 -88.890625 74.835938 -87.113281 80.296875 -84.75 C 89.785156 -80.707031 97.882812 -75.210938 104.59375 -68.265625 C 111.300781 -61.328125 114.65625 -53.46875 114.65625 -44.6875 C 114.65625 -36.257812 113.140625 -28.898438 110.109375 -22.609375 C 107.085938 -16.316406 102.9375 -11.390625 97.65625 -7.828125 C 92.375 -4.273438 86.523438 -1.640625 80.109375 0.078125 C 73.703125 1.804688 66.757812 2.671875 59.28125 2.671875 C 52.875 2.671875 46.582031 2.015625 40.40625 0.703125 C 34.238281 -0.597656 29.078125 -2.226562 24.921875 -4.1875 C 20.765625 -6.144531 17.023438 -8.070312 13.703125 -9.96875 C 10.378906 -11.863281 7.945312 -13.46875 6.40625 -14.78125 L 4.09375 -16.734375 L 20.828125 -44.859375 C 22.253906 -43.671875 24.210938 -42.15625 26.703125 -40.3125 C 29.191406 -38.476562 33.613281 -36.019531 39.96875 -32.9375 C 46.320312 -29.851562 51.929688 -28.3125 56.796875 -28.3125 C 70.921875 -28.3125 77.984375 -33.117188 77.984375 -42.734375 C 77.984375 -44.742188 77.476562 -46.609375 76.46875 -48.328125 C 75.457031 -50.054688 73.675781 -51.78125 71.125 -53.5 C 68.570312 -55.21875 66.316406 -56.582031 64.359375 -57.59375 C 62.398438 -58.601562 59.191406 -60.144531 54.734375 -62.21875 C 50.285156 -64.300781 46.992188 -65.875 44.859375 -66.9375 C 35.960938 -71.332031 29.078125 -76.820312 24.203125 -83.40625 C 19.335938 -89.988281 16.90625 -97.082031 16.90625 -104.6875 C 16.90625 -117.851562 21.769531 -128.617188 31.5 -136.984375 C 41.238281 -145.359375 52.335938 -149.546875 64.796875 -149.546875 Z M 64.796875 -149.546875 "/></g></g></g><g fill="#1c1716" fill-opacity="1"><g transform="translate(220.571513, 618.219588)"><g><path d="M 85.28125 -146.875 L 144.5625 0 L 108.59375 0 L 97.734375 -29.375 L 41.84375 -29.375 L 30.984375 0 L -4.984375 0 L 54.296875 -146.875 Z M 86.34375 -58.75 L 69.96875 -101.484375 L 69.609375 -101.484375 L 53.234375 -58.75 Z M 86.34375 -58.75 "/></g></g></g><g fill="#1c1716" fill-opacity="1"><g transform="translate(368.336325, 618.219588)"><g><path d="M 44.15625 -146.875 L 44.15625 -29.375 L 94.71875 -29.375 L 94.71875 0 L 10.6875 0 L 10.6875 -146.875 Z M 44.15625 -146.875 "/></g></g></g><g fill="#1c1716" fill-opacity="1"><g transform="translate(477.112597, 618.219588)"><g><path d="M 4.09375 -73.53125 C 4.09375 -94.769531 11.332031 -112.75 25.8125 -127.46875 C 40.289062 -142.1875 57.738281 -149.546875 78.15625 -149.546875 C 98.6875 -149.546875 116.128906 -142.21875 130.484375 -127.5625 C 144.847656 -112.90625 152.03125 -94.894531 152.03125 -73.53125 C 152.03125 -52.039062 144.96875 -33.96875 130.84375 -19.3125 C 116.726562 -4.65625 99.164062 2.671875 78.15625 2.671875 C 56.675781 2.671875 38.960938 -4.597656 25.015625 -19.140625 C 11.066406 -33.679688 4.09375 -51.8125 4.09375 -73.53125 Z M 40.234375 -73.53125 C 40.234375 -65.8125 41.421875 -58.773438 43.796875 -52.421875 C 46.171875 -46.078125 50.320312 -40.707031 56.25 -36.3125 C 62.1875 -31.925781 69.488281 -29.734375 78.15625 -29.734375 C 90.613281 -29.734375 100.015625 -34.003906 106.359375 -42.546875 C 112.710938 -51.097656 115.890625 -61.425781 115.890625 -73.53125 C 115.890625 -85.519531 112.65625 -95.816406 106.1875 -104.421875 C 99.726562 -113.023438 90.382812 -117.328125 78.15625 -117.328125 C 66.050781 -117.328125 56.703125 -113.023438 50.109375 -104.421875 C 43.523438 -95.816406 40.234375 -85.519531 40.234375 -73.53125 Z M 40.234375 -73.53125 "/></g></g></g><g fill="#1c1716" fill-opacity="1"><g transform="translate(641.434159, 618.219588)"><g><path d="M 44.15625 -91.15625 L 44.15625 0 L 10.6875 0 L 10.6875 -146.875 L 44.15625 -146.875 L 102.546875 -55.71875 L 102.90625 -55.71875 L 102.90625 -146.875 L 136.375 -146.875 L 136.375 0 L 102.90625 0 L 44.5 -91.15625 Z M 44.15625 -91.15625 "/></g></g></g><g fill="#604734" fill-opacity="1"><g transform="translate(796.651939, 618.219588)"><g><path d="M 1.421875 -117.5 L 1.421875 -146.875 L 104.6875 -146.875 L 104.6875 -117.5 L 69.78125 -117.5 L 69.78125 0 L 36.3125 0 L 36.3125 -117.5 Z M 1.421875 -117.5 "/></g></g></g><g fill="#604734" fill-opacity="1"><g transform="translate(910.947127, 618.219588)"><g><path d="M 4.09375 -73.53125 C 4.09375 -94.769531 11.332031 -112.75 25.8125 -127.46875 C 40.289062 -142.1875 57.738281 -149.546875 78.15625 -149.546875 C 98.6875 -149.546875 116.128906 -142.21875 130.484375 -127.5625 C 144.847656 -112.90625 152.03125 -94.894531 152.03125 -73.53125 C 152.03125 -52.039062 144.96875 -33.96875 130.84375 -19.3125 C 116.726562 -4.65625 99.164062 2.671875 78.15625 2.671875 C 56.675781 2.671875 38.960938 -4.597656 25.015625 -19.140625 C 11.066406 -33.679688 4.09375 -51.8125 4.09375 -73.53125 Z M 40.234375 -73.53125 C 40.234375 -65.8125 41.421875 -58.773438 43.796875 -52.421875 C 46.171875 -46.078125 50.320312 -40.707031 56.25 -36.3125 C 62.1875 -31.925781 69.488281 -29.734375 78.15625 -29.734375 C 90.613281 -29.734375 100.015625 -34.003906 106.359375 -42.546875 C 112.710938 -51.097656 115.890625 -61.425781 115.890625 -73.53125 C 115.890625 -85.519531 112.65625 -95.816406 106.1875 -104.421875 C 99.726562 -113.023438 90.382812 -117.328125 78.15625 -117.328125 C 66.050781 -117.328125 56.703125 -113.023438 50.109375 -104.421875 C 43.523438 -95.816406 40.234375 -85.519531 40.234375 -73.53125 Z M 40.234375 -73.53125 "/></g></g></g><g fill="#604734" fill-opacity="1"><g transform="translate(1075.268688, 618.219588)"><g><path d="M 10.6875 -146.875 L 53.234375 -146.875 C 73.648438 -146.875 91.097656 -139.898438 105.578125 -125.953125 C 120.054688 -112.003906 127.296875 -94.53125 127.296875 -73.53125 C 127.296875 -52.40625 120.082031 -34.867188 105.65625 -20.921875 C 91.238281 -6.972656 73.765625 0 53.234375 0 L 10.6875 0 Z M 44.15625 -29.90625 L 49.3125 -29.90625 C 61.539062 -29.90625 71.539062 -34.03125 79.3125 -42.28125 C 87.082031 -50.53125 91.03125 -60.882812 91.15625 -73.34375 C 91.15625 -85.8125 87.265625 -96.195312 79.484375 -104.5 C 71.710938 -112.8125 61.65625 -116.96875 49.3125 -116.96875 L 44.15625 -116.96875 Z M 44.15625 -29.90625 "/></g></g></g><g fill="#604734" fill-opacity="1"><g transform="translate(1214.844112, 618.219588)"><g><path d="M 85.28125 -146.875 L 144.5625 0 L 108.59375 0 L 97.734375 -29.375 L 41.84375 -29.375 L 30.984375 0 L -4.984375 0 L 54.296875 -146.875 Z M 86.34375 -58.75 L 69.96875 -101.484375 L 69.609375 -101.484375 L 53.234375 -58.75 Z M 86.34375 -58.75 "/></g></g></g><g fill="#604734" fill-opacity="1"><g transform="translate(1362.608924, 618.219588)"><g><path d="M -5.34375 -146.875 L 34.890625 -146.875 L 65.515625 -99.875 L 96.140625 -146.875 L 136.375 -146.875 L 82.25 -65.875 L 82.25 0 L 48.78125 0 L 48.78125 -65.875 Z M -5.34375 -146.875 "/></g></g></g><g clip-path="url(#id1)"><path stroke-linecap="butt" transform="matrix(0.0208244, 0, 0, -0.0207289, 1534.493691, 718.134754)" fill="none" stroke-linejoin="miter" d="M 5130.62282 1292.067091 C 5320.266454 2281.39913 5509.910088 3270.73117 5942.845308 3955.160497 C 6375.592948 4639.40138 7051.632174 5018.551106 7904.934737 5059.820386 C 8758.237301 5101.089665 9788.803202 4804.290053 10506.110083 4519.739314 C 11223.229384 4235.37702 11627.277245 3963.263598 11458.267439 3971.555142 C 11289.257632 3979.846687 10547.377738 4268.354754 10192.851063 4936.200992 C 9838.324388 5604.04723 9871.150932 6651.043194 9525.065368 7450.611926 C 9178.792224 8250.369102 8453.231812 8802.699046 7777.192586 9260.241559 C 7427.167837 9497.30436 7090.273706 9708.73875 6783.955155 9947.497549 M 6196.828969 10500.204382 C 6188.200277 10510.568813 6179.384005 10520.933244 6170.755314 10531.486119 M 6033.82173 10709.942774 C 6029.507384 10715.972989 6025.193039 10721.814759 6021.066273 10727.844973 C 5567.684806 11374.962349 5287.43991 12306.630464 4883.392049 12912.667005 C 4479.344187 13518.515101 3951.68094 13798.920068 3485.919176 13860.729765 C 3020.157412 13922.539462 2616.109551 13765.942333 2451.22651 13980.391831 C 2286.343469 14194.652884 2360.625248 14779.960563 3131.392501 14948.995008 C 3902.347334 15118.029454 5369.78764 14870.790666 6190.07608 14384.227747 C 7010.364519 13897.853272 7183.501091 13172.34311 7290.796994 12529.183062 C 7397.905318 11886.211458 7439.172973 11325.589969 7958.582689 10674.326821 C 8477.992405 10022.875228 9475.544182 9280.970421 9941.305946 8580.146449 C 10407.06771 7879.322476 10341.227042 7219.767783 10283.452325 6651.043194 C 10225.677607 6082.13016 10176.344001 5603.858785 10209.358125 5261.832566 C 10242.184669 4919.617902 10357.734104 4713.45995 10415.321241 4610.569418 C 10450.398748 4547.8175 10464.279687 4523.13131 10438.956353 4586.071672 M 10240.121287 5061.327939 C 10098.498197 5410.13815 9912.231007 5918.183708 9846.577919 6407.761734 C 9764.042609 7021.901375 9871.150932 7607.397498 9525.065368 8151.435898 C 9178.792224 8695.662742 8378.950033 9198.431862 7682.276979 10051.895635 C 6985.603926 10905.170963 6392.10001 12108.764056 5955.038025 12879.68927 C 5518.163619 13650.42604 5237.918724 13988.494931 4751.523132 14182.215567 C 4264.93996 14375.936202 3572.581252 14425.497026 3164.406625 14342.958467 C 2756.231998 14260.608353 2632.616613 14046.158856 2521.381524 14017.326893 C 2409.958854 13988.494931 2311.104062 14145.280504 2445.036361 14471.288966 C 2579.156241 14797.485873 2945.875632 15293.282558 3360.240408 15631.728338 C 3774.605183 15970.174117 4236.240181 16151.64588 5093.66951 15986.757207 C 5951.098839 15821.868533 7204.134918 15310.619424 8078.071309 14890.200418 C 8952.0077 14469.781413 9446.656823 14140.004066 9982.573601 14082.151697 C 10518.49038 14024.487773 11095.487233 14238.93727 11491.281563 14593.400807 C 11887.075893 14947.864343 12101.480121 15442.530363 12192.081382 15780.599254 C 12282.682644 16118.668145 12249.8561 16299.951464 12406.485609 15805.285444 C 12563.115119 15310.619424 12909.388263 14140.004066 12999.989525 13158.963571 C 13090.778366 12177.734633 12925.895325 11386.269001 12618.638874 11007.119275 C 12311.570002 10627.781104 11862.3153 10660.758839 11497.471711 10887.457209 C 11132.628122 11114.344023 10852.383227 11534.763029 10378.367932 11648.017992 C 9904.165056 11761.461399 9236.379362 11567.740764 8752.047153 11563.594991 C 8267.714944 11559.449219 7966.83622 11745.066754 7719.417869 12072.771214 C 7472.187098 12400.475675 7278.416698 12870.26706 7181.437708 13105.256975 C 7084.646298 13340.24689 7084.646298 13340.24689 7121.787188 13255.635445 C 7158.928078 13171.212444 7233.022277 13002.177999 7618.499694 12837.289325 C 8003.97711 12672.589096 8700.462583 12511.657751 9287.963931 12509.584865 C 9875.465278 12507.700423 10353.607339 12664.109108 10765.721151 12559.145689 C 11178.022543 12453.993827 11524.295687 12087.092973 11862.3153 11998.5242 C 12200.334913 11909.766983 12530.100995 12099.53029 12694.984036 12491.117334 C 12859.867077 12882.704377 12859.867077 13476.303601 12814.472656 13966.823848 C 12769.265816 14457.344096 12678.476974 14844.973811 12647.526232 14987.060736 C 12616.763071 15129.336106 12645.46285 15026.257129 12624.829022 14747.925049 C 12604.195194 14469.781413 12534.227761 14016.384672 12202.398296 13690.564654 C 11870.568831 13364.93308 11276.877336 13167.066672 10718.450927 13095.080988 C 10159.836939 13022.718416 9636.300457 13076.425013 9079.749852 13323.852245 C 8523.386826 13571.091032 7933.822096 14012.2389 7441.236356 14354.265119 C 6948.650616 14696.479783 6552.856286 14939.761243 6047.890249 15114.825902 C 5542.924212 15290.079007 4928.786469 15397.303755 4355.728802 15333.232728 C 3782.858714 15269.350145 3251.068701 15034.548674 2991.270053 14919.032381 C 2731.658985 14803.516087 2744.039282 14807.850304 2989.20667 14974.623419 C 3234.561639 15141.773423 3712.7037 15471.362325 4333.031591 15527.141808 C 4953.547063 15582.732846 5716.060784 15364.326021 6604.440855 15005.528268 C 7492.820925 14646.918959 8506.879764 14148.107167 9275.583634 13888.431062 C 10044.475084 13628.754957 10567.823986 13608.21454 10988.378909 13705.074857 C 11408.746252 13801.935175 11726.319618 14016.384672 11928.155968 14245.155929 C 12130.179899 14473.927185 12216.841975 14717.020201 12260.173013 15024.184243 C 12303.316471 15331.348286 12303.316471 15702.206468 12303.316471 16073.253094 " stroke="#000000" stroke-width="56.32" stroke-opacity="1" stroke-miterlimit="22.926001"/></g><g clip-path="url(#id2)"><path stroke-linecap="butt" transform="matrix(0.0248293, 0, 0, -0.0247155, 1534.493691, 718.134754)" fill="none" stroke-linejoin="miter" d="M 2381.667931 12664.356659 C 2465.521639 13057.265535 2549.375347 13450.174412 2926.638372 13653.582989 C 3303.901397 13856.991567 3974.573739 13870.741797 4769.689389 13663.382004 C 5564.805039 13456.022211 6484.363998 13027.236297 7105.636594 12681.583959 C 7726.751866 12335.931621 8049.423453 12073.096761 8421.652109 12013.196333 C 8793.880765 11953.137856 9215.666491 12096.17186 9502.940171 12274.450707 C 9790.371174 12452.571505 9943.290132 12666.253243 9961.697044 12736.426831 C 9980.103955 12806.758468 9863.998821 12733.740005 9615.898825 12970.496841 C 9367.641505 13207.09563 8987.389323 13753.31167 8199.19593 14112.714239 C 7411.002537 14472.432904 6214.710609 14645.338098 5329.762938 14634.906888 C 4444.657942 14624.475679 3870.897203 14430.866116 3480.104311 14216.552184 C 3089.468744 14002.238251 2882.115672 13767.061901 2778.281811 13649.631774 C 2674.605275 13532.043598 2674.605275 13532.043598 2885.5768 13652.950795 C 3096.391001 13774.01604 3518.176727 14015.988481 4136.932139 14081.736709 C 4755.844875 14147.326887 5571.727297 14036.8509 6301.238826 13701.471722 C 7030.593032 13366.092544 7673.733668 12805.968225 8129.973357 12519.109975 C 8586.370369 12232.093676 8856.023757 12218.343445 9114.192491 12258.961942 C 9372.361225 12299.580438 9619.045305 12394.56766 9663.882654 12418.749099 C 9708.877327 12442.930539 9552.182592 12396.306195 9335.390078 12539.024101 C 9118.754888 12681.583959 8842.179243 13013.486067 8468.849318 13341.911105 C 8095.519394 13670.336143 7625.277867 13995.284112 6992.67794 14188.893675 C 6359.92069 14382.503238 5564.805039 14444.774395 4973.581333 14441.297325 C 4382.51495 14437.820256 3995.183187 14368.753008 3711.842608 14275.346272 C 3428.344705 14181.939535 3248.523339 14064.35136 3158.691317 14005.715321 C 3068.701972 13946.921233 3068.701972 13946.921233 3148.307931 14195.847814 C 3227.756567 14444.774395 3386.811161 14942.627557 3991.722059 15371.255422 C 4596.79028 15800.041336 5647.714804 16159.443904 6605.346177 16229.775541 C 7562.977551 16299.94913 8427.315774 16080.893739 8856.023757 15856.148597 C 9284.73174 15631.561504 9277.809483 15401.126612 9028.922867 15185.706339 C 8780.036251 14970.128017 8289.027951 14769.722364 7984.763276 14638.383958 C 7680.655926 14507.045553 7562.977551 14444.774395 7504.295687 14413.638816 C 7445.4565 14382.503238 7445.4565 14382.503238 7625.277867 14462.001695 C 7805.099234 14541.500152 8164.584643 14700.655116 8413.47126 14928.719278 C 8662.5152 15156.94149 8800.645699 15454.230949 8250.955536 15571.819125 C 7701.422698 15689.249251 6463.597226 15627.136143 5668.481576 15430.04951 C 4873.365925 15232.962877 4520.802773 14901.060769 4344.442535 14735.109715 C 4168.082297 14569.158661 4168.082297 14569.158661 4517.341644 14697.178046 C 4866.443668 14825.039382 5564.805039 15080.920102 6218.171738 15181.122929 C 6871.695761 15281.325756 7480.067787 15226.166786 7687.578183 15080.920102 C 7894.931255 14935.673418 7701.265374 14700.655116 7604.511095 14583.06694 C 7507.756816 14465.478765 7507.756816 14465.478765 7777.410204 14576.112801 C 8047.063593 14686.746837 8586.370369 14908.014909 9053.150768 14921.765139 C 9519.773842 14935.673418 9913.870538 14742.063855 10159.45335 14499.933365 C 10404.878838 14257.960923 10501.633116 13967.783652 10517.837491 13752.20533 C 10533.884543 13536.627008 10469.38169 13395.963734 10437.130264 13325.632097 C 10404.878838 13255.458508 10404.878838 13255.458508 10412.902363 13422.515903 C 10420.925889 13589.573297 10437.130264 13923.846134 10203.18943 14135.947386 C 9969.248597 14347.890589 9485.162555 14437.820256 9115.29376 14427.389047 C 8745.424964 14417.115886 8489.61609 14306.323802 8346.923195 14242.472158 C 8204.387623 14178.462466 8174.968029 14161.235166 8164.584643 14150.013714 C 8154.201257 14138.792261 8162.854079 14133.576657 8360.767709 14151.752248 C 8558.68134 14169.92784 8945.855779 14211.336579 9276.078919 14117.929843 C 9606.302059 14024.681156 9879.416576 13796.458944 10019.906935 13600.636701 C 10160.554618 13404.972506 10168.578144 13241.55023 10176.444345 13078.127954 " stroke="#000000" stroke-width="47.234001" stroke-opacity="1" stroke-miterlimit="22.926001"/></g><g clip-path="url(#id3)"><path stroke-linecap="butt" transform="matrix(0.0173767, 0, 0, -0.017297, 1534.493691, 718.134754)" fill="none" stroke-linejoin="miter" d="M 13751.064842 10562.591786 C 14106.69613 11007.032994 14462.327417 11451.700035 14648.01101 11866.331162 C 14833.469804 12280.962288 14848.756105 12665.331666 14855.949658 12843.062982 C 14863.143211 13020.568465 14862.019219 12991.210052 14844.484933 12749.341894 C 14826.725848 12507.925405 14792.781269 12053.773338 15067.260284 11500.931836 C 15341.514501 10947.8645 15924.641909 10295.881895 16112.348689 9782.109666 C 16300.055468 9268.337437 16092.566417 8892.775583 15791.111577 8616.128998 C 15489.881536 8339.482413 15094.685706 8161.751097 15104.576841 8196.30369 C 15114.467977 8230.856284 15529.446079 8477.918622 15687.479451 8848.512129 C 15845.512824 9218.879802 15746.826265 9712.778644 15529.446079 10127.861439 C 15312.065892 10542.718399 14975.992077 10878.759312 14975.992077 10843.980884 C 14975.992077 10809.42829 15312.065892 10404.508023 15304.197943 9767.656293 C 15296.554793 9130.578729 14945.194678 8262.021369 14895.738999 8227.468775 C 14846.283321 8192.916181 15098.956878 8992.368353 15047.478013 9421.678686 C 14995.774349 9851.214854 14640.143061 9910.383348 14259.783934 10147.508992 C 13879.424808 10384.634636 13474.337842 10799.717431 13288.204652 11425.503298 C 13102.071462 12051.289164 13134.66725 12887.778104 13147.255968 13279.148334 C 13159.844687 13670.744398 13152.426335 13617.221752 13150.852745 13362.029392 C 13149.279155 13106.837032 13153.775126 12649.749124 13071.948458 12342.163288 C 12990.12179 12034.577452 12822.197282 11876.719523 12614.708231 11802.420155 C 12407.21918 11728.34662 12160.390385 11738.283314 12051.587893 11851.877789 C 11943.010199 11965.472265 11972.683606 12182.724522 11997.411445 12365.650019 C 12021.914486 12548.349682 12041.696757 12696.722585 12145.553682 12904.038148 C 12249.185808 13111.579545 12436.892587 13378.289437 12402.948008 13570.248291 C 12369.003429 13762.207146 12113.182692 13879.414965 11857.361956 13996.848617 " stroke="#000000" stroke-width="67.491997" stroke-opacity="1" stroke-miterlimit="22.926001"/></g><g clip-path="url(#id4)"><path stroke-linecap="butt" transform="matrix(0.0177145, 0, 0, -0.0176333, 1534.493691, 718.134754)" fill="none" stroke-linejoin="miter" d="M 11768.798524 12130.014051 C 11780.265087 11811.902026 11791.51114 11493.790001 11850.387531 11140.898318 C 11902.869108 10826.995296 11992.837526 10486.066043 11780.92662 9934.465108 M 11154.896378 8851.643674 C 10784.217676 8334.379343 10309.457863 7781.892302 9840.21082 7327.984545 C 9089.150939 6600.934637 8352.644772 6126.203391 7843.705781 5874.106257 C 7334.9873 5622.230649 7053.835994 5592.989154 6816.345832 5752.931272 C 6578.85567 5912.873391 6385.026651 6261.777597 6138.054524 6596.061055 C 5890.861885 6930.56604 5590.305626 7250.22875 5183.463148 7604.006539 C 4776.400159 7957.784327 4262.609929 8345.455667 3952.571704 8849.428409 C 3642.312969 9353.401151 3535.806239 9973.675295 3443.632713 10395.240186 C 3411.658643 10541.66919 3381.448659 10663.951807 3349.033567 10770.72757 M 3265.239453 10999.78595 C 3256.41902 11019.723334 3247.157565 11039.217664 3237.675599 11058.268941 M 2662.583359 11891.430032 C 2637.445124 11942.159596 2614.95302 11995.769004 2595.768578 12052.70131 C 2479.338861 12396.731933 2489.041337 12861.716015 2387.385845 13317.395984 C 2285.509843 13772.854427 2072.275872 14218.787231 2033.465966 14640.352122 C 1994.876571 15061.917014 2130.49073 15459.113992 2300.9456 15754.187264 C 2471.400471 16049.260535 2676.475541 16241.767046 2502.051476 16270.787015 C 2327.627411 16300.02851 1773.483699 16165.561937 1302.693081 15875.362248 C 831.681952 15585.162559 444.023915 15139.451282 221.307979 14427.022122 C -1.628469 13714.814489 -59.843327 12735.888974 240.492421 11883.012026 C 541.04868 11030.135078 1200.155546 10303.306697 1844.488186 9716.926105 C 2489.041337 9130.545512 3119.040773 8684.834235 3482.442619 8263.047817 C 3845.844464 7841.482925 3942.869228 7444.285947 3569.764907 6760.876756 C 3196.660585 6077.689092 2353.427178 5108.510742 2062.573395 4381.682361 C 1771.940123 3654.632454 2033.465966 3170.154042 2440.528955 2811.502671 C 2847.591944 2452.8513 3399.971569 2220.248496 3598.651825 2041.033574 C 3797.332081 1861.818651 3642.312969 1735.770084 3487.293857 1692.129368 C 3332.274744 1648.488651 3177.255632 1687.255785 3201.511823 1682.382203 C 3225.547504 1677.730147 3429.078998 1629.215847 3647.164207 1653.362234 C 3865.249416 1677.730147 4097.88834 1774.537218 3933.166752 2113.694259 C 3768.445163 2452.8513 3206.142551 3034.35831 2862.145659 3451.271145 C 2518.148766 3867.962454 2392.237083 4120.059588 2537.553719 4449.469464 C 2682.870355 4778.87934 3099.635821 5186.04501 3438.781475 5578.589932 C 3777.927128 5971.134855 4039.673482 6349.05903 4131.847008 6775.497504 C 4223.800023 7201.935978 4146.400723 7676.888751 3874.951893 8161.367162 C 3603.723574 8646.067101 3138.445726 9140.292677 2736.233976 10060.956728 C 2334.022225 10981.620779 1994.876571 12328.723304 1897.851806 13108.939566 C 1801.047553 13889.155829 1946.364189 14102.485829 2018.912251 14209.040066 C 2091.680824 14315.594303 2091.680824 14315.594303 1873.595615 14151.000128 C 1655.510406 13986.184427 1219.560499 13656.553025 1127.386972 13050.899628 C 1035.213446 12445.024706 1287.257323 11563.127789 1699.17155 10836.299408 C 2111.085777 10109.471027 2682.870355 9537.711183 3051.123438 9164.439064 C 3419.376522 8791.388471 3584.318621 8616.825605 3690.825351 8466.630652 C 3723.901976 8419.888565 3751.024807 8374.25411 3774.178444 8329.505761 " stroke="#000000" stroke-width="66.207001" stroke-opacity="1" stroke-miterlimit="22.926001"/></g><g clip-path="url(#id5)"><path stroke-linecap="butt" transform="matrix(0.016825, 0, 0, -0.0167479, 1534.493691, 718.134754)" fill="none" stroke-linejoin="miter" d="M 1920.644896 11188.092193 C 1565.658469 11870.314311 1210.439873 12552.303191 929.051024 13219.131579 C 647.894345 13885.959967 440.335244 14537.161387 678.308486 15048.18657 C 916.281729 15558.978515 1599.555145 15929.594223 2282.828562 16299.976693 " stroke="#000000" stroke-width="69.700996" stroke-opacity="1" stroke-miterlimit="22.926001"/></g><g clip-path="url(#id6)"><path stroke-linecap="butt" transform="matrix(0.0187833, 0, 0, -0.0186972, 1534.493691, 718.134754)" fill="none" stroke-linejoin="miter" d="M 863.176209 14693.328477 C 903.937045 15255.326717 944.697881 15817.533879 1259.970467 16058.837956 C 1575.243054 16299.933112 2165.027391 16220.334105 2440.57896 16115.03778 C 2716.130528 16009.950377 2677.65729 15879.374578 2611.940841 15746.709565 C 2546.016428 15613.835632 2452.848803 15479.290328 2359.473215 15344.536103 " stroke="#000000" stroke-width="62.438" stroke-opacity="1" stroke-miterlimit="22.926001"/></g><g clip-path="url(#id7)"><path stroke-linecap="butt" transform="matrix(0.0197915, 0, 0, -0.0197007, 1534.493691, 718.134754)" fill="none" stroke-linejoin="miter" d="M 2380.013078 15266.620615 C 2458.171737 15283.870922 2536.330396 15301.12123 2637.581386 15404.623074 C 2738.832376 15508.124918 2863.373067 15698.076579 2840.478106 15874.743521 C 2817.583146 16051.212183 2647.449903 16214.792684 2378.039374 16257.422754 C 2108.628845 16300.052824 1739.94103 16221.930742 1501.122905 16003.426848 C 1262.30478 15784.922955 1153.158976 15426.235528 1044.210543 15067.349822 " stroke="#000000" stroke-width="59.257" stroke-opacity="1" stroke-miterlimit="22.926001"/></g><g clip-path="url(#id8)"><path stroke-linecap="butt" transform="matrix(0.0213747, 0, 0, -0.0212767, 1534.493691, 718.134754)" fill="none" stroke-linejoin="miter" d="M 1261.644394 14669.720843 C 1364.716109 14955.391514 1467.787824 15241.062185 1783.399263 15514.064941 C 2099.010702 15786.884104 2627.161865 16047.035351 2942.407801 16173.530912 C 3257.653737 16300.026472 3359.994447 16293.049939 3432.729451 16281.667175 C 3505.281705 16270.468003 3547.86275 16254.8626 3590.626546 16239.257197 " stroke="#000000" stroke-width="54.869999" stroke-opacity="1" stroke-miterlimit="22.926001"/></g><g clip-path="url(#id9)"><path stroke-linecap="butt" transform="matrix(0.0179476, 0, 0, -0.0178653, 1534.493691, 718.134754)" fill="none" stroke-linejoin="miter" d="M 12874.625636 11029.676377 C 12884.637412 11001.907859 12894.431542 10974.576641 12985.40812 10782.602166 C 13076.602346 10590.62769 13248.761375 10234.447257 13468.802813 9692.851841 C 13688.626604 9151.256425 13956.550452 8424.246026 14339.174436 7625.51851 C 14721.79842 6827.009645 15219.122541 5956.565013 15520.346429 5124.384087 C 15821.787963 4292.203161 15926.911618 3498.28594 16027.464679 2914.709773 C 16127.800092 2331.352256 16223.564912 1958.117142 16261.653192 1508.573268 C 16299.95912 1059.029395 16280.806156 532.95811 16261.87084 6.886826 " stroke="#000000" stroke-width="65.343002" stroke-opacity="1" stroke-miterlimit="22.926001"/></g><path stroke-linecap="butt" transform="matrix(0.013791, 0, 0, -0.0137278, 1534.493691, 718.134754)" fill="none" stroke-linejoin="miter" d="M 10420.801469 7276.104142 C 10544.580053 7326.469625 10668.358637 7377.119659 10694.983779 7467.891349 C 10721.608921 7558.663038 10650.797374 7689.840934 10579.985826 7820.73428 " stroke="#000000" stroke-width="85.039001" stroke-opacity="1" stroke-miterlimit="22.926001"/><path stroke-linecap="butt" transform="matrix(0.013791, 0, 0, -0.0137278, 1534.493691, 718.134754)" fill="none" stroke-linejoin="miter" d="M 8681.10338 10965.304628 C 8965.765799 10920.061059 9301.695779 10870.264677 9560.016302 10873.394736 C 9818.336826 10876.524794 9999.047894 10932.581292 10045.500269 10902.988014 C 10092.23589 10873.394736 10005.27931 10758.151682 9866.771924 10541.893111 C 9728.264538 10325.63454 9538.489592 10008.075902 9298.580071 9753.118429 C 9058.953795 9497.876406 8769.759437 9304.950997 8480.281833 9208.488292 C 8190.804228 9112.025587 7901.326624 9112.025587 7700.505076 9178.895014 C 7499.966775 9245.76444 7387.801284 9379.503293 7342.76514 9511.819393 C 7297.728997 9644.135492 7319.255707 9774.744286 7235.414835 9876.044354 C 7151.290717 9977.05987 6961.515771 10048.76666 6874.275945 10162.302409 C 6787.319365 10275.838159 6802.897906 10431.48742 6917.895858 10506.324267 C 7033.177057 10580.876564 7247.877667 10574.616447 7389.500762 10622.990075 C 7531.123856 10671.079152 7599.386187 10773.801973 7677.278889 10860.874503 C 7755.171591 10947.947032 7842.12817 11019.653822 8002.445513 11035.304113 C 8162.762856 11050.669854 8396.157715 11010.263647 8681.10338 10965.304628 Z M 8681.10338 10965.304628 " stroke="#000000" stroke-width="85.039001" stroke-opacity="1" stroke-miterlimit="22.926001"/><path stroke-linecap="butt" transform="matrix(0.013791, 0, 0, -0.0137278, 1534.493691, 718.134754)" fill="none" stroke-linejoin="miter" d="M 10045.500269 10902.988014 C 9803.891271 10775.793828 9562.282272 10648.884193 9293.481639 10578.884709 C 9024.964253 10509.169775 8729.255232 10496.934092 8531.549393 10453.113277 C 8333.843553 10409.577012 8234.424141 10335.024715 8120.84242 10288.358392 C 8007.260698 10241.692069 7879.516667 10222.911719 7729.679434 10158.8878 C 7579.8422 10094.863881 7407.628518 9985.311842 7321.521676 9930.678098 C 7235.414835 9876.044354 7235.414835 9876.044354 7285.54941 9904.214878 C 7335.967232 9932.385402 7436.519629 9989.011002 7581.824923 10012.628714 C 7727.130218 10036.246426 7916.905164 10026.856252 8119.142943 10064.416951 C 8321.663967 10101.693099 8536.081332 10185.635571 8719.908108 10268.155288 C 8903.451638 10350.675006 9055.838087 10431.48742 9200.576889 10496.934092 C 9345.315692 10562.096214 9482.406847 10611.892596 9619.214756 10661.688977 " stroke="#000000" stroke-width="85.039001" stroke-opacity="1" stroke-miterlimit="22.926001"/><path stroke-linecap="butt" transform="matrix(0.013791, 0, 0, -0.0137278, 1534.493691, 718.134754)" fill="none" stroke-linejoin="miter" d="M 7537.638518 12893.135966 C 7829.948584 12787.283087 8122.541897 12681.714758 8250.285928 12522.935439 C 8377.746712 12364.15612 8340.358216 12152.450361 8228.475971 12009.321333 C 8116.310481 11866.192306 7929.651243 11791.355458 7764.801961 11769.729601 C 7599.669433 11747.819193 7456.630108 11779.119776 7453.5144 11835.176274 C 7450.398692 11891.232772 7587.206601 11972.045185 7518.94427 11987.695476 C 7450.398692 12003.061217 7176.499628 11953.264836 7036.576011 11881.842597 C 6896.369148 11810.135808 6890.137732 11716.803162 6977.377558 11663.876722 C 7064.334137 11610.950282 7245.045205 11598.430049 7263.739454 11548.633668 C 7282.433702 11498.837286 7139.111131 11411.764756 6924.41052 11368.228492 C 6709.70991 11324.692227 6423.348013 11324.692227 6230.457359 11380.748725 C 6037.283459 11436.805223 5937.864047 11548.633668 5931.63263 11810.135808 C 5925.401214 12071.637948 6012.64104 12482.244682 6077.787664 12837.079468 C 6143.217533 13191.914254 6186.837446 13490.692543 6165.02749 13761.584858 C 6143.217533 14032.192622 6055.977707 14274.914412 5969.021127 14517.636203 " stroke="#000000" stroke-width="85.039001" stroke-opacity="1" stroke-miterlimit="22.926001"/><path stroke-linecap="butt" transform="matrix(0.0149688, 0, 0, -0.0149001, 1534.493691, 718.134754)" fill="none" stroke-linejoin="miter" d="M 16120.975407 15074.451472 C 16210.484748 14812.027203 16299.994088 14549.602933 16214.66011 14168.41923 C 16129.587093 13787.235526 15869.409797 13287.292388 15609.232501 12787.349249 " stroke="#000000" stroke-width="78.348999" stroke-opacity="1" stroke-miterlimit="22.926001"/><g clip-path="url(#id10)"><path stroke-linecap="butt" transform="matrix(0.0163423, 0, 0, -0.0162674, 1534.493691, 718.134754)" fill="none" stroke-linejoin="miter" d="M 16205.175682 9831.887959 C 16252.502894 10129.88583 16300.069133 10428.123829 16191.790208 10655.284172 C 16083.511283 10882.684642 15819.387195 11039.007458 15638.92232 11263.286275 C 15458.218419 11487.805219 15360.695679 11780.280164 15263.650991 12072.995236 " stroke="#000000" stroke-width="71.762001" stroke-opacity="1" stroke-miterlimit="22.926001"/></g><path stroke-linecap="butt" transform="matrix(0.0162858, 0, 0, -0.0162111, 1534.493691, 718.134754)" fill="none" stroke-linejoin="miter" d="M 2430.850263 12529.605128 C 2453.396746 12544.062782 2476.422941 12557.797554 2500.168705 12570.568482 C 2696.610934 12677.555126 2943.183109 12732.253252 3188.79586 12802.372877 C 3434.40861 12872.492502 3678.822079 12958.033624 3826.093787 12955.624015 C 3973.125639 12953.214406 4022.775873 12862.854065 4010.783062 12749.120516 C 3998.550396 12635.386967 3924.674686 12498.521171 3802.58788 12395.630862 C 3680.740929 12292.740554 3510.682882 12223.825734 3411.622271 12271.535994 C 3312.56166 12319.246254 3284.498484 12483.581594 3383.559095 12660.928823 C 3482.37985 12838.517013 3708.084536 13029.358053 3959.213979 13114.899176 C 4210.103566 13200.199338 4486.178054 13180.199583 4562.932039 13093.212694 C 4639.446167 13006.225806 4516.639792 12852.010824 4395.032697 12774.903333 C 4273.425603 12697.554882 4153.257646 12696.831999 4189.236076 12714.181184 C 4225.454363 12731.53037 4418.058893 12766.710663 4571.806718 12704.060826 C 4725.554543 12641.41099 4840.68552 12480.690063 4880.021937 12385.510504 C 4919.358354 12290.089984 4883.140068 12259.969871 4849.080487 12218.283633 C 4815.260763 12176.597396 4783.599744 12123.345035 4693.653668 12099.248944 C 4603.707593 12075.152853 4455.236604 12080.213032 4334.588935 12112.019872 C 4213.701409 12143.585751 4120.637203 12202.139252 4053.477466 12256.355457 C 3986.31773 12310.571661 3944.822607 12360.691531 3990.395285 12330.089495 C 4035.967964 12299.48746 4168.368587 12188.645441 4246.801565 12074.670931 C 4325.234543 11960.696421 4349.699875 11843.83038 4327.153392 11720.458395 C 4304.606909 11597.086409 4235.288467 11466.967519 4182.759959 11402.871917 C 4129.991595 11338.776315 4094.253021 11340.704002 4000.22939 11401.18519 C 3906.205759 11461.666379 3754.136927 11580.701068 3666.109701 11686.000985 C 3578.322331 11791.300902 3554.816423 11883.34797 3536.347496 11963.346991 C 3517.878568 12043.105052 3504.206765 12111.29699 3492.933523 12159.730132 C 3481.660282 12208.404236 3472.545746 12237.319545 3478.542151 12245.753177 C 3484.778412 12254.42777 3506.365471 12242.379724 3527.23296 12145.995361 C 3548.10045 12049.851958 3568.008514 11868.890315 3541.624332 11743.590642 C 3515.24015 11618.290969 3442.563721 11548.653267 3380.920677 11501.665889 C 3319.277633 11454.678512 3269.147687 11430.582421 3244.682355 11463.112144 C 3220.217022 11495.882828 3221.656159 11585.520286 3183.039311 11679.49504 C 3144.182606 11773.710756 3065.269916 11872.263768 3045.601707 11987.443082 C 3026.173355 12102.622397 3065.989484 12234.187053 3123.315117 12326.716042 C 3180.400893 12419.245032 3254.996171 12472.497392 3302.247843 12529.364167 C 3349.499515 12585.989981 3369.887292 12646.471169 3318.078352 12676.591282 C 3266.509269 12706.470435 3142.983325 12705.988513 2995.711617 12680.446657 C 2848.43991 12655.145762 2677.422438 12604.784932 2555.335631 12558.279476 C 2507.124535 12539.725486 2466.588837 12521.894379 2436.606811 12509.364412 M 2424.614001 12552.496414 C 2479.061359 12608.399345 2582.199526 12699.964491 2726.592959 12810.083626 C 2925.193894 12961.648038 3202.227807 13148.392743 3451.198544 13295.619858 C 3700.409138 13442.846974 3921.556556 13550.5565 4138.866274 13585.495832 C 4355.936137 13620.676125 4568.928444 13583.327184 4706.605903 13511.279872 C 4844.283363 13439.23256 4906.645975 13332.727838 4921.51706 13178.753817 C 4936.628001 13025.020757 4904.48727 12824.059359 4936.388144 12635.386967 C 4968.049163 12446.714575 5063.751787 12270.33119 5129.472387 12149.609774 C 5195.432842 12028.888359 5231.411272 11963.587952 5360.933621 11910.09463 C 5490.695826 11856.360348 5714.00195 11814.43315 5873.506324 11792.505707 C 6033.250554 11770.578264 6129.193035 11769.132499 6119.119074 11783.349192 C 6109.045114 11797.565886 5993.194569 11827.686 5937.787786 11996.117675 C 5882.141147 12164.790311 5887.417984 12471.77451 5784.759529 12732.012292 C 5682.101075 12992.250073 5471.987043 13205.500478 5276.024526 13343.089157 C 5079.822153 13480.918797 4897.771296 13542.60479 4713.321877 13573.206825 C 4529.112314 13603.808861 4342.264333 13603.085978 4404.147233 13632.72417 C 4466.030133 13662.362362 4776.643914 13722.602589 5060.393801 13620.676125 C 5344.143687 13518.508699 5600.789823 13254.656504 5789.076941 13000.683705 C 5977.603916 12746.710907 6097.771873 12502.858467 6229.452927 12350.330211 C 6361.373838 12197.801956 6505.047703 12136.597885 6690.456547 12166.717999 C 6875.86539 12197.079073 7103.009213 12318.523371 7291.296332 12402.618729 C 7479.58345 12486.473125 7628.774007 12532.496659 7634.530556 12540.207408 C 7640.526961 12547.677196 7503.089358 12516.8342 7306.167416 12569.8456 C 7109.485331 12623.097961 6853.079051 12760.445679 6642.485306 12822.854554 C 6431.651705 12885.022469 6266.390782 12872.492502 6116.720512 12916.588348 C 5967.050243 12960.684194 5832.970626 13061.405854 5685.459062 13193.693394 C 5537.947498 13325.980933 5376.764131 13490.075312 5247.481638 13594.411385 C 5117.959289 13698.98842 5020.337815 13744.04811 4910.723531 13747.180602 C 4801.588959 13750.313094 4680.461577 13711.277426 4723.87555 13740.192735 C 4767.289522 13768.867084 4974.765137 13865.251447 5180.801614 13905.250958 C 5387.077947 13945.49143 5591.435431 13929.106088 5729.352747 13916.094199 C 5867.509919 13902.841349 5938.987067 13892.720991 5993.434425 13822.119445 C 6047.881783 13751.517898 6085.539206 13620.194203 6130.15246 13503.810084 C 6175.005569 13387.185004 6227.054365 13285.258539 6309.325042 13223.090624 C 6391.355863 13160.92271 6503.608566 13138.513345 6621.857673 13133.453166 C 6740.346637 13128.392987 6864.592149 13140.200072 6947.342539 13156.103492 C 7030.092928 13172.006912 7071.348195 13192.006667 7025.295804 13258.511878 C 6979.003557 13325.25805 6845.163797 13438.750638 6721.877709 13497.304139 C 6598.831478 13555.616679 6486.338919 13558.50821 6393.994281 13546.219204 C 6301.649644 13533.448275 6229.452927 13505.255849 6263.99222 13502.84624 C 6298.531513 13500.19567 6439.56696 13523.568878 6535.029728 13483.569367 C 6630.25264 13443.569856 6679.663018 13340.438587 6742.745199 13285.017578 C 6805.82738 13229.596569 6882.581364 13221.88582 6936.309153 13225.500234 C 6990.276799 13229.114647 7021.218249 13244.054224 7025.295804 13268.150314 C 7029.613216 13292.487366 7007.066733 13325.980933 7043.524875 13356.101046 C 7079.743162 13386.22116 7174.966074 13412.967821 7228.933719 13465.73826 C 7282.901365 13518.508699 7295.613743 13597.784838 7261.314306 13649.591434 C 7227.01487 13701.157068 7145.463761 13725.49412 7093.894678 13737.301205 C 7042.325594 13749.108289 7020.49868 13748.144445 7058.39596 13761.638256 C 7096.533096 13775.132067 7194.15457 13802.842572 7223.417027 13867.661056 C 7252.679483 13932.479541 7213.343066 14034.165045 7140.186925 14097.537764 C 7067.030783 14160.910483 6959.815061 14185.488496 6870.348698 14190.307714 C 6780.882335 14194.885971 6708.925474 14179.464473 6660.474521 14181.633121 C 6611.783713 14183.560808 6586.598811 14203.319603 6617.300405 14202.114798 C 6648.001999 14200.909994 6734.590088 14178.982551 6814.702059 14226.933772 C 6894.81403 14274.884993 6968.449884 14392.714877 7000.350759 14498.496717 C 7032.011778 14604.037595 7022.177673 14697.771388 7030.332784 14766.686208 C 7038.487895 14835.601028 7064.872077 14879.937836 7034.170484 14887.648585 C 7003.708746 14895.118373 6916.161232 14865.962103 6825.735444 14858.974237 C 6735.549513 14852.227331 6642.24545 14867.88979 6594.993778 14827.649318 C 6547.50225 14787.408847 6546.063113 14691.506405 6514.881807 14627.410803 C 6483.700501 14563.315201 6423.016882 14531.026439 6347.222322 14516.809746 C 6271.667619 14502.834013 6180.762118 14506.930348 6114.32195 14479.701766 C 6048.121639 14452.714144 6006.146803 14394.642565 5977.603916 14301.631654 C 5949.300884 14208.620743 5934.429799 14080.911461 5843.044586 14016.574898 C 5751.89923 13952.238336 5584.239745 13951.033531 5426.65422 13945.49143 C 5269.068696 13939.708368 5121.796988 13929.347049 5016.979828 13899.708857 C 4912.162668 13870.070666 4850.039912 13821.155601 4921.277204 13874.407962 C 4992.514496 13927.660323 5197.351692 14082.839148 5368.848876 14204.765368 C 5540.34606 14326.691588 5678.743088 14415.365203 5812.342993 14523.797612 C 5945.942897 14632.230021 6074.745677 14760.662186 6158.215635 14891.022038 C 6241.685593 15021.62285 6279.82273 15153.910389 6279.343017 15290.294264 C 6279.103161 15426.678139 6240.486312 15566.917388 6175.725138 15708.602402 C 6110.724107 15850.528378 6019.818607 15993.900119 5956.256714 16106.428863 C 5892.934676 16218.716647 5857.196102 16299.920473 5850.240272 16268.113633 C 5843.284443 16236.306793 5865.111357 16091.248326 5799.630614 15956.792139 C 5734.149871 15822.094991 5581.121614 15698.000122 5515.880727 15506.4362 C 5450.639841 15314.872277 5473.186324 15056.08026 5483.260284 14859.456158 C 5493.574101 14662.832057 5491.415395 14528.61683 5396.192483 14379.702988 C 5300.729715 14230.789147 5112.442596 14067.658611 4908.324969 13941.154134 C 4703.967485 13814.649656 4483.779492 13724.771237 4268.148767 13648.386629 C 4052.518042 13572.002021 3841.444584 13508.870263 3624.374722 13419.232804 C 3407.304859 13329.354385 3183.998736 13212.729305 2951.33822 13042.610903 C 2765.209808 12906.227029 2573.324846 12735.626705 2413.100904 12594.423612 " stroke="#000000" stroke-width="72.014999" stroke-opacity="1" stroke-miterlimit="22.926001"/><path stroke-linecap="butt" transform="matrix(0.015075, 0, 0, -0.0150058, 1534.493691, 718.134754)" fill="none" stroke-linejoin="miter" d="M 6451.517665 14956.811061 C 6437.525082 15065.102268 6423.532498 15173.65379 6437.006838 15279.341843 C 6450.481177 15385.290211 6491.163318 15488.37511 6508.006242 15535.231882 C 6524.590045 15582.088654 6516.816387 15572.7173 6503.860292 15581.568023 C 6490.904196 15590.679062 6472.247418 15618.53281 6498.159609 15689.598914 C 6524.071801 15760.665019 6594.29384 15874.683164 6690.168948 15962.66977 C 6786.044056 16050.656375 6907.313112 16112.351125 6983.754077 16174.566506 C 7059.93592 16237.042202 7091.548793 16300.038529 7119.793082 16293.010013 C 7148.037371 16285.981498 7172.913074 16208.667824 7173.172196 16151.13812 C 7173.431318 16093.608416 7148.814736 16055.602368 7124.198154 16017.596319 " stroke="#000000" stroke-width="77.792999" stroke-opacity="1" stroke-miterlimit="22.926001"/><path stroke-linecap="butt" transform="matrix(0.0145123, 0, 0, -0.0144457, 1534.493691, 718.134754)" fill="none" stroke-linejoin="miter" d="M 6991.282687 16276.014514 C 7059.651522 16287.912482 7128.020357 16300.080859 7171.894846 16253.841027 C 7215.500166 16207.871603 7234.611139 16103.764379 7187.506627 16040.488819 C 7140.132946 15976.942851 7026.27461 15954.498956 7021.429575 15964.504065 C 7016.584539 15974.779584 7120.752804 16017.504107 7207.425107 16015.611248 C 7294.097409 16013.988798 7363.27375 15967.478558 7397.458168 15905.55504 C 7431.642585 15843.631522 7430.565911 15766.024318 7403.649047 15715.72836 C 7377.001351 15664.891586 7324.244297 15641.366057 7256.952137 15633.253806 C 7189.659976 15624.871146 7107.832709 15632.172172 7131.519549 15632.712989 C 7155.20639 15633.524214 7284.407338 15627.845638 7336.356886 15601.075209 C 7388.306434 15574.30478 7363.004582 15526.712906 7350.084487 15477.76899 C 7337.164392 15428.825074 7336.356886 15378.529116 7302.441637 15331.207651 C 7268.526388 15283.886185 7201.772565 15239.539212 7150.630523 15210.335107 C 7099.75765 15181.131003 7064.496558 15167.069767 7029.504634 15153.008532 " stroke="#000000" stroke-width="80.816002" stroke-opacity="1" stroke-miterlimit="22.926001"/><path stroke-linecap="butt" transform="matrix(0.0142709, 0, 0, -0.0142055, 1534.493691, 718.134754)" fill="none" stroke-linejoin="miter" d="M 8249.56374 15366.922483 C 8406.953161 15234.656428 8564.342581 15102.665354 8710.509451 14953.07547 C 8856.402601 14803.210605 8991.073201 14636.021911 9153.389595 14561.776932 C 9315.705988 14487.531953 9505.668176 14506.230688 9676.743633 14512.280279 C 9847.81909 14518.32987 9999.460375 14511.180354 10024.368961 14523.279535 C 10049.551268 14535.378717 9947.727156 14566.176635 9804.297493 14676.719159 C 9660.86783 14786.986702 9475.558895 14976.998852 9295.724375 15057.293422 C 9116.163575 15137.862973 8941.803469 15108.714945 8804.669383 15115.314498 C 8667.535297 15121.914052 8567.353509 15164.53617 8498.375885 15205.508399 C 8429.39826 15246.480628 8391.351079 15286.352932 8359.599474 15318.800737 C 8328.12159 15351.248543 8302.939283 15376.271851 8295.001381 15399.64527 C 8286.78976 15423.018689 8295.548823 15444.467239 8307.592535 15466.465751 C 8319.362527 15488.189282 8334.143446 15510.737757 8395.45689 15525.586753 C 8456.770334 15540.435749 8564.616302 15547.860247 8656.312747 15568.758833 C 8748.282912 15589.65742 8824.103555 15624.305077 8894.176062 15710.374256 C 8964.248569 15796.443436 9028.572941 15934.209119 9123.006593 16020.278299 C 9217.440246 16106.072497 9342.256899 16140.720154 9461.051696 16153.369298 C 9579.846494 16166.018443 9692.893156 16156.669075 9808.129584 16190.216806 C 9923.366011 16223.764538 10040.792205 16299.934387 10032.580583 16296.084647 C 10024.368961 16292.234907 9891.066965 16208.365579 9785.684484 16072.799747 C 9680.575723 15937.233915 9603.660197 15749.971579 9493.624463 15643.828757 C 9383.315009 15537.685935 9239.885346 15512.112664 9101.656376 15503.863222 C 8963.427407 15495.61378 8830.672852 15504.413185 8698.73946 15500.838427 C 8566.806068 15497.53865 8435.693837 15481.589728 8404.215953 15477.465007 C 8372.738069 15473.340286 8440.894531 15480.489803 8554.762355 15449.966867 C 8668.63018 15419.443931 8828.209366 15350.973561 9055.397573 15370.22226 C 9282.312059 15389.470958 9576.835566 15496.438724 9830.848404 15487.914301 C 10084.861243 15479.389877 10298.089692 15355.373264 10452.741906 15299.002076 C 10607.394119 15242.90587 10703.196375 15254.455089 10691.700104 15254.180107 C 10679.930112 15253.905126 10560.587874 15242.080925 10427.285878 15174.710482 C 10293.983881 15107.065056 10146.722128 14983.873387 9958.402265 14991.297885 C 9770.082402 14998.997364 9540.97815 15137.038029 9303.114834 15233.006539 C 9065.251519 15328.975049 8818.62914 15382.596423 8647.279963 15405.419879 C 8475.930785 15428.243336 8380.128529 15420.268875 8284.326273 15412.294415 " stroke="#000000" stroke-width="82.181999" stroke-opacity="1" stroke-miterlimit="22.926001"/><path stroke-linecap="butt" transform="matrix(0.013791, 0, 0, -0.0137278, 1534.493691, 718.134754)" fill="none" stroke-linejoin="miter" d="M 7703.054292 5361.931241 C 7999.896297 5398.069186 8296.738303 5433.922581 8547.127933 5589.856392 C 8797.517564 5746.074755 9001.454819 6022.088983 9065.185211 6295.826805 C 9128.632358 6569.564628 9051.872641 6841.026044 8875.127019 7006.06548 C 8698.381398 7171.104915 8421.933118 7230.291472 8192.220459 7342.404467 C 7962.5078 7454.802014 7779.814009 7620.410551 7563.697167 7636.345393 C 7347.297079 7651.995684 7097.757188 7517.403179 6971.146141 7375.412354 C 6844.818341 7233.706081 6841.419387 7084.032386 6990.406882 6927.814023 C 7139.677623 6771.595661 7441.051568 6609.117182 7614.681481 6452.045168 C 7788.594641 6294.973153 7834.76377 6143.592154 7776.415055 5999.324923 C 7717.783094 5855.057692 7554.916535 5718.188781 7449.265707 5571.360594 C 7343.331633 5424.532406 7294.896535 5268.029493 7287.81538 5081.07965 C 7280.734225 4894.414357 7315.007014 4677.586685 7358.343681 4513.685452 C 7401.680348 4349.78422 7453.5144 4238.809427 7499.117036 4248.768703 C 7544.719673 4258.727979 7583.807647 4389.621325 7620.063159 4507.709887 C 7656.318671 4626.082999 7689.741721 4732.220429 7711.834924 4835.227801 C 7734.211373 4938.519723 7745.257974 5039.250689 7727.130218 5187.501631 C 7709.285708 5336.037123 7662.266841 5532.377141 7676.712396 5638.514571 C 7691.441198 5744.936552 7767.634423 5761.155944 7901.60987 5742.375595 C 8035.302071 5723.595245 8226.493248 5669.530603 8365.000634 5663.839588 C 8503.50802 5657.864022 8589.331615 5699.977533 8651.929023 5765.708756 C 8714.243184 5831.724531 8753.614404 5921.358017 8732.087694 5925.057177 C 8710.560984 5928.756337 8628.419589 5846.52117 8490.478695 5850.50488 C 8352.537802 5854.488591 8158.514163 5944.97573 8001.312528 5946.683034 C 7844.39414 5948.105788 7724.297756 5860.464157 7683.793551 5837.984647 C 7643.0061 5815.505138 7681.810828 5858.187751 7593.438017 6002.454981 C 7505.065206 6146.722212 7289.231611 6392.574061 7068.016338 6588.060427 C 6846.801065 6783.831343 6620.204114 6928.952226 6598.677404 6961.106461 C 6577.43394 6993.260696 6761.260716 6912.163732 6887.30527 6867.773815 C 7013.63307 6823.668448 7081.895401 6816.55468 7046.206381 6871.757525 C 7010.234115 6926.67582 6870.593745 7043.91073 6729.537143 7138.381579 C 6588.480541 7232.852428 6445.724462 7304.274667 6346.30505 7319.640407 C 6246.602392 7334.721597 6189.953154 7293.746289 6086.568295 7266.998518 C 5983.466683 7240.250748 5833.629449 7228.015066 5755.453501 7146.349 C 5676.994307 7064.967485 5669.913152 6914.440138 5645.55398 6828.505811 C 5621.194808 6742.286934 5579.557618 6720.376526 5542.452368 6662.612723 C 5505.347117 6604.848921 5473.057052 6510.947173 5510.445548 6461.150792 C 5547.834045 6411.35441 5654.901104 6405.663395 5710.98385 6404.525192 C 5767.066595 6403.386989 5772.165026 6406.517048 5724.862913 6403.956091 C 5677.560799 6401.395134 5577.858141 6393.143162 5511.012041 6348.753245 C 5444.449187 6304.363328 5410.74289 6223.835465 5403.095243 6170.055374 C 5395.447596 6116.275282 5413.575352 6089.24296 5384.400995 6043.999391 C 5354.943391 5999.040372 5278.183674 5935.301004 5249.009317 5828.594472 C 5219.834959 5721.60339 5238.245961 5571.360594 5314.722432 5448.71922 C 5391.198903 5326.077846 5525.740843 5231.037895 5621.7613 5181.810616 C 5717.781758 5132.298785 5775.563981 5128.599625 5804.171846 5126.60777 C 5833.062957 5124.615915 5833.062957 5124.615915 5817.484417 5169.005832 C 5802.189122 5213.111198 5771.032042 5301.891032 5655.467597 5322.094136 C 5540.186398 5342.297239 5340.214589 5294.208162 5209.35485 5202.29827 C 5078.778357 5110.103826 5017.597181 4974.088567 5040.256876 4879.617718 C 5062.633325 4785.146869 5169.417138 4732.50498 5214.736528 4649.416161 C 5260.339164 4566.327341 5244.477378 4452.791592 5388.649687 4324.743754 C 5532.821997 4196.980467 5837.31165 4054.705091 6093.082958 4033.648336 C 6348.57102 4012.876131 6555.623983 4113.322546 6711.409387 4218.321773 C 6867.478037 4323.321 6972.279126 4432.873039 7056.969736 4549.823398 C 7141.377101 4667.058307 7205.390739 4792.260638 7241.646251 4889.861545 C 7277.901763 4987.747003 7286.399149 5058.31559 7257.224792 5049.209966 C 7228.050434 5040.388892 7161.204334 4951.893609 6998.054529 4868.80479 C 6834.904725 4785.431419 6575.451216 4707.464514 6371.797207 4699.781643 C 6168.143198 4692.098773 6020.005441 4754.415388 5928.233676 4903.804532 C 5836.461911 5053.193676 5801.339384 5289.370799 5836.178665 5454.410235 C 5871.017946 5619.44967 5975.819036 5713.066868 6048.613306 5777.659888 C 6121.12433 5841.968358 6161.628535 5877.252651 6161.062043 5876.114448 C 6160.212304 5874.976245 6118.291868 5837.415546 6122.823807 5762.009597 C 6127.0725 5686.888198 6177.773568 5573.637 6323.645355 5471.48328 C 6469.517142 5369.32956 6710.559648 5278.557871 6888.721501 5239.005316 C 7066.600107 5199.452762 7181.031567 5211.119343 7246.461436 5240.712621 C 7311.891306 5270.021348 7328.036339 5316.972222 7336.250478 5340.589935 C 7344.181371 5363.923096 7344.181371 5363.923096 7266.005423 5408.882115 C 7187.546229 5453.556583 7030.911087 5543.47462 6900.334594 5716.481477 C 6769.474855 5889.772884 6664.957012 6146.722212 6602.359604 6333.387505 C 6540.045443 6520.052797 6519.934963 6636.718605 6478.864266 6714.116409 C 6437.793569 6791.229663 6375.762654 6829.359463 6383.410301 6839.034189 C 6390.774702 6848.424364 6467.817665 6829.928565 6544.860628 6818.831086 C 6621.620345 6808.018157 6698.946554 6804.888099 6749.930868 6795.782475 C 6801.198428 6786.3923 6826.407339 6771.02656 6851.61625 6755.376268 " stroke="#000000" stroke-width="85.039001" stroke-opacity="1" stroke-miterlimit="22.926001"/><path stroke-linecap="butt" transform="matrix(0.013791, 0, 0, -0.0137278, 1534.493691, 718.134754)" fill="none" stroke-linejoin="miter" d="M 6527.016118 6583.792165 C 6499.824484 6613.385443 6472.63285 6643.263272 6393.040671 6648.100635 C 6313.448492 6652.937998 6181.172522 6632.734895 6076.937925 6602.003413 C 5972.703328 6570.987382 5896.510103 6529.158421 5846.658774 6494.44323 C 5797.090691 6459.728038 5773.581257 6432.126615 5758.852456 6375.501016 C 5743.840408 6319.159967 5737.608991 6234.079292 5765.083872 6155.258734 C 5792.558752 6076.438176 5854.023175 6004.162286 5925.68446 5958.634166 C 5997.345746 5913.106045 6079.203894 5894.610247 6119.991346 5885.220072 C 6161.062043 5876.114448 6161.062043 5876.114448 6217.711281 5925.910829 C 6274.077272 5975.707211 6387.375747 6075.299973 6470.650127 6124.527253 C 6553.924506 6173.754533 6607.741282 6172.61633 6634.366424 6172.047229 C 6661.274811 6171.762678 6661.274811 6171.762678 6610.290498 6183.144708 C 6559.306184 6194.526738 6457.620802 6217.290798 6361.600344 6283.022022 C 6265.863133 6348.753245 6176.074091 6457.451632 6149.165703 6522.898305 C 6122.257315 6588.344977 6157.946335 6610.539936 6193.918601 6633.019445 " stroke="#000000" stroke-width="85.039001" stroke-opacity="1" stroke-miterlimit="22.926001"/><path stroke-linecap="butt" transform="matrix(0.013791, 0, 0, -0.0137278, 1534.493691, 718.134754)" fill="none" stroke-linejoin="miter" d="M 6240.937468 6390.297655 C 6201.566248 6398.834177 6161.911781 6407.3707 6118.008622 6357.005217 C 6074.388709 6306.639734 6026.236857 6197.087695 6025.670365 6108.592411 C 6025.387119 6020.097128 6072.689232 5952.6586 6119.991346 5885.220072 " stroke="#000000" stroke-width="85.039001" stroke-opacity="1" stroke-miterlimit="22.926001"/><path stroke-linecap="butt" transform="matrix(0.013791, 0, 0, -0.0137278, 1534.493691, 718.134754)" fill="none" stroke-linejoin="miter" d="M 5976.102282 5931.317293 C 5927.100691 5968.877993 5878.382347 6006.438692 5870.451454 6072.169915 C 5862.803807 6137.901139 5896.226857 6231.802886 5944.378709 6283.875674 C 5992.530561 6336.233012 6055.411215 6346.476839 6118.008622 6357.005217 " stroke="#000000" stroke-width="85.039001" stroke-opacity="1" stroke-miterlimit="22.926001"/><path stroke-linecap="butt" transform="matrix(0.013791, 0, 0, -0.0137278, 1534.493691, 718.134754)" fill="none" stroke-linejoin="miter" d="M 7792.276841 5898.309406 C 7918.321395 6020.097128 8044.649195 6142.1694 8080.904707 6331.964751 C 8116.876973 6521.475551 8063.060197 6778.993981 8009.243422 7036.227859 " stroke="#000000" stroke-width="85.039001" stroke-opacity="1" stroke-miterlimit="22.926001"/><path stroke-linecap="butt" transform="matrix(0.013791, 0, 0, -0.0137278, 1534.493691, 718.134754)" fill="none" stroke-linejoin="miter" d="M 7241.646251 4889.861545 C 7139.111131 4552.099804 7036.859257 4214.053512 7067.449845 3961.941546 C 7097.757188 3709.829581 7261.190238 3543.367392 7424.340043 3376.905202 " stroke="#000000" stroke-width="85.039001" stroke-opacity="1" stroke-miterlimit="22.926001"/><path stroke-linecap="butt" transform="matrix(0.013791, 0, 0, -0.0137278, 1534.493691, 718.134754)" fill="none" stroke-linejoin="miter" d="M 7735.344357 5010.795614 C 7788.877887 4856.284556 7842.12817 4701.773499 7930.500981 4575.717516 C 8018.873792 4449.946084 8142.085884 4352.060626 8170.410503 4181.614726 C 8198.451875 4011.168826 8131.605775 3767.877934 8034.169086 3614.505079 C 7937.015643 3460.847674 7809.271613 3396.823755 7709.285708 3295.523688 C 7609.299804 3194.22362 7536.788779 3055.362854 7409.894487 2984.794268 C 7283.000195 2914.225681 7101.439388 2911.664725 6937.439845 2958.615598 C 6773.440302 3005.566472 6627.002023 3101.460075 6541.461674 3250.280118 C 6455.638079 3399.100161 6430.99566 3600.846643 6440.909277 3754.504049 C 6450.822894 3908.161454 6495.575791 4014.014334 6546.560105 4083.444717 C 6597.261173 4152.8751 6654.476903 4185.598437 6711.409387 4218.321773 " stroke="#000000" stroke-width="85.039001" stroke-opacity="1" stroke-miterlimit="22.926001"/><path stroke-linecap="butt" transform="matrix(0.0156252, 0, 0, -0.0155536, 1534.493691, 718.134754)" fill="none" stroke-linejoin="miter" d="M 3618.85493 13899.413495 C 3647.104549 13910.715159 3879.101419 14010.42095 4150.347759 14155.082249 C 4421.844096 14299.743548 4732.08991 14489.611503 4865.338113 14881.151373 C 4998.586315 15272.691242 4954.586909 15865.903027 4935.337168 16082.894976 C 4916.087428 16299.886924 4921.587354 16140.659036 4784.339206 15967.618003 C 4647.091057 15794.57697 4366.844838 15607.722792 4262.346248 15377.168847 C 4158.097655 15146.363754 4229.59669 14871.607745 4205.347017 14641.556096 C 4181.347341 14411.504447 4061.848953 14226.157158 3914.100947 14095.309004 C 3766.35294 13964.209702 3590.605311 13887.860683 3618.85493 13899.413495 Z M 3618.85493 13899.413495 " stroke="#000000" stroke-width="75.056999" stroke-opacity="1" stroke-miterlimit="22.926001"/><path stroke-linecap="butt" transform="matrix(0.0153149, 0, 0, -0.0152447, 1534.493691, 718.134754)" fill="none" stroke-linejoin="miter" d="M 3244.288469 13943.755657 C 3493.994015 14089.554296 3743.699561 14235.352934 3808.230208 14488.770953 C 3872.760855 14742.44521 3752.116602 15103.482611 3739.36351 15463.495066 C 3726.865479 15823.50752 3822.003547 16182.238792 3819.197867 16241.173215 C 3816.392187 16300.107638 3715.642758 16058.988977 3558.524662 15846.056343 C 3401.661628 15632.867473 3188.684987 15447.864632 3121.34866 15237.750601 C 3054.267395 15027.636571 3132.571381 14792.155115 3192.765977 14603.052487 C 3253.215634 14413.94986 3295.045776 14270.969824 3283.05787 14156.432054 C 3271.069963 14041.894284 3204.753883 13955.542542 3138.437804 13869.1908 " stroke="#000000" stroke-width="76.580002" stroke-opacity="1" stroke-miterlimit="22.926001"/><path stroke-linecap="butt" transform="matrix(0.013791, 0, 0, -0.0137278, 1534.493691, 718.134754)" fill="none" stroke-linejoin="miter" d="M 15629.132379 15263.443721 C 15744.413578 15199.704353 15859.41153 15184.054062 15957.414711 15241.533313 C 16055.417892 15299.297116 16136.426302 15429.90591 16131.894363 15569.90488 C 16127.079178 15709.903849 16037.00689 15859.292994 15910.67909 15927.869725 C 15784.917783 15996.161905 15622.900963 15983.926223 15512.434949 15907.666621 C 15401.968936 15831.40702 15342.770483 15691.408051 15370.811855 15565.352068 C 15398.853228 15439.296085 15513.85118 15327.183089 15629.132379 15263.443721 Z M 15629.132379 15263.443721 " stroke="#000000" stroke-width="85.039001" stroke-opacity="1" stroke-miterlimit="22.926001"/><path stroke-linecap="butt" transform="matrix(0.013791, 0, 0, -0.0137278, 1534.493691, 718.134754)" fill="none" stroke-linejoin="miter" d="M 8448.841506 5535.507199 C 8307.218412 5367.053154 8165.878564 5198.59911 8142.652376 5015.348426 C 8119.426189 4832.097743 8214.596908 4634.334971 8309.767627 4436.572199 " stroke="#000000" stroke-width="85.039001" stroke-opacity="1" stroke-miterlimit="22.926001"/></svg>